<svg width="94" height="100" viewBox="0 0 94 100" fill="none" xmlns="http://www.w3.org/2000/svg">
<path fill-rule="evenodd" clip-rule="evenodd" d="M17.9698 -5.85458C24.9572 -8.86452 33.1399 -5.7524 36.266 1.25424L36.2689 1.26079L42.7384 16.0483C43.1767 17.0501 42.7199 18.2175 41.7181 18.6558C40.7163 19.0941 39.5488 18.6373 39.1105 17.6355L32.6469 2.86142C30.4145 -2.13315 24.5656 -4.37673 19.5482 -2.2228C14.5551 0.0124092 12.3142 5.86323 14.4723 10.8804C14.473 10.882 14.4737 10.8836 14.4744 10.8852L20.9366 25.6559C21.3749 26.6577 20.9181 27.8251 19.9162 28.2634C18.9144 28.7017 17.747 28.2449 17.3087 27.2431L10.8376 12.4519C7.82762 5.46451 10.9398 -2.71827 17.9464 -5.84432L17.9581 -5.84952L17.9698 -5.85458Z" fill="#FF7CB4"/>
<path d="M93.2122 83.8179L33.2572 110.146L6.92871 44.4638L62.4495 19.9829L93.2122 83.8179Z" fill="#FF7CB4"/>
<path d="M54.1351 2.98535L0 26.8196L6.92855 44.4643L62.4493 19.9834L54.1351 2.98535Z" fill="#FF2D87"/>
<path d="M0 26.8192L18.5685 30.4221L6.92855 44.4639L0 26.8192Z" fill="#FF7CB4"/>
<path d="M54.1346 2.98535L44.1575 19.0596L62.4488 19.9834L54.1346 2.98535Z" fill="#FF7CB4"/>
<path d="M18.5687 30.4211L21.8944 37.904L6.92871 44.463L18.5687 30.4211Z" fill="#FF2D87"/>
<path d="M44.1575 19.0592L47.4832 26.6344L62.4488 19.983L44.1575 19.0592Z" fill="#FF2D87"/>
<path fill-rule="evenodd" clip-rule="evenodd" d="M25.6373 11.513C32.6247 8.50304 40.8074 11.6152 43.9335 18.6218L43.9364 18.6283L50.4059 33.4158L46.778 35.003L40.3144 20.229C38.082 15.2344 32.2331 12.9908 27.2157 15.1447C22.2226 17.3799 19.9816 23.2308 22.1398 28.2479C22.1405 28.2495 22.1412 28.2512 22.1419 28.2528L28.6041 43.0234L24.9762 44.6106L18.505 29.8194C15.4951 22.8321 18.6072 14.6493 25.6139 11.5232L25.6256 11.518L25.6373 11.513Z" fill="white"/>
</svg>
